<svg width="200" height="45" viewBox="0 0 61 14" fill="none" xmlns="http://www.w3.org/2000/svg">
<path d="M0.056 8.4V7.472L5.88 4.112V5.264L1.096 7.936L5.88 10.608V11.76L0.056 8.4ZM6.7175 12V1.92H8.1895V6.16H12.9735V1.92H14.4455V12H12.9735V7.408H8.1895V12H6.7175ZM15.5151 12V4.48H16.9231V12H15.5151ZM16.2191 2.544C15.9738 2.544 15.7605 2.464 15.5791 2.304C15.4085 2.13333 15.3231 1.92533 15.3231 1.68C15.3231 1.43467 15.4085 1.22667 15.5791 1.056C15.7605 0.885333 15.9738 0.799999 16.2191 0.799999C16.4538 0.799999 16.6618 0.885333 16.8431 1.056C17.0245 1.22667 17.1151 1.43467 17.1151 1.68C17.1151 1.92533 17.0245 2.13333 16.8431 2.304C16.6618 2.464 16.4538 2.544 16.2191 2.544ZM24.1286 8.4H18.7366V8.464C18.7366 9.296 18.9606 9.936 19.4086 10.384C19.8673 10.832 20.486 11.056 21.2646 11.056C21.67 11.056 22.0273 11.024 22.3366 10.96C22.6566 10.896 23.0033 10.7893 23.3766 10.64L23.6646 11.68C23.3553 11.8187 22.9873 11.9307 22.5606 12.016C22.1446 12.1013 21.6966 12.144 21.2166 12.144C20.6726 12.144 20.1606 12.0693 19.6806 11.92C19.2113 11.7707 18.7953 11.5413 18.4326 11.232C18.07 10.912 17.782 10.5067 17.5686 10.016C17.366 9.52533 17.2646 8.93867 17.2646 8.256C17.2646 7.66933 17.35 7.136 17.5206 6.656C17.702 6.176 17.9526 5.77067 18.2726 5.44C18.5926 5.09867 18.9766 4.83733 19.4246 4.656C19.8833 4.464 20.3953 4.368 20.9606 4.368C21.4406 4.368 21.8726 4.448 22.2566 4.608C22.6513 4.768 22.9873 4.992 23.2646 5.28C23.542 5.568 23.7553 5.91467 23.9046 6.32C24.054 6.72533 24.1286 7.17333 24.1286 7.664V8.4ZM22.6726 7.392C22.6726 7.11467 22.6353 6.85867 22.5606 6.624C22.4966 6.37867 22.39 6.16533 22.2406 5.984C22.102 5.80267 21.9206 5.65867 21.6966 5.552C21.4726 5.44533 21.2006 5.392 20.8806 5.392C20.294 5.392 19.814 5.57867 19.4406 5.952C19.078 6.32533 18.854 6.816 18.7686 7.424L22.6726 7.392ZM29.3311 4.48H30.7391V12H29.6351L29.4431 11.056H29.3791C29.1018 11.3653 28.7551 11.6267 28.3391 11.84C27.9338 12.0427 27.4591 12.144 26.9151 12.144C26.1365 12.144 25.5018 11.9253 25.0111 11.488C24.5311 11.04 24.2911 10.368 24.2911 9.472V4.48H25.6991V9.296C25.6991 9.616 25.7365 9.888 25.8111 10.112C25.8965 10.336 26.0031 10.5173 26.1311 10.656C26.2698 10.784 26.4298 10.88 26.6111 10.944C26.7925 10.9973 26.9898 11.024 27.2031 11.024C27.6298 11.024 28.0138 10.9333 28.3551 10.752C28.6965 10.5707 29.0218 10.32 29.3311 10V4.48ZM31.6081 12V1.92H33.0801V6.16H37.8641V1.92H39.3361V12H37.8641V7.408H33.0801V12H31.6081ZM47.0778 8.16C47.0778 8.78933 46.9818 9.35467 46.7898 9.856C46.5978 10.3467 46.3311 10.7627 45.9898 11.104C45.6591 11.4453 45.2698 11.7067 44.8218 11.888C44.3738 12.0587 43.8884 12.144 43.3658 12.144C42.8431 12.144 42.3578 12.064 41.9098 11.904C41.4724 11.7333 41.0884 11.488 40.7578 11.168C40.4378 10.8373 40.1818 10.4373 39.9898 9.968C39.8084 9.488 39.7178 8.93867 39.7178 8.32C39.7178 7.69067 39.8138 7.13067 40.0058 6.64C40.1978 6.14933 40.4591 5.73867 40.7898 5.408C41.1311 5.06667 41.5258 4.81067 41.9738 4.64C42.4218 4.45867 42.9071 4.368 43.4298 4.368C43.9524 4.368 44.4324 4.448 44.8698 4.608C45.3178 4.768 45.7018 5.008 46.0218 5.328C46.3524 5.648 46.6084 6.048 46.7898 6.528C46.9818 6.99733 47.0778 7.54133 47.0778 8.16ZM45.6058 8.24C45.6058 7.73867 45.5418 7.312 45.4138 6.96C45.2858 6.608 45.1151 6.32 44.9018 6.096C44.6991 5.872 44.4644 5.712 44.1978 5.616C43.9311 5.50933 43.6591 5.456 43.3818 5.456C43.1044 5.456 42.8324 5.49867 42.5658 5.584C42.2991 5.66933 42.0644 5.81867 41.8618 6.032C41.6591 6.24533 41.4938 6.53333 41.3658 6.896C41.2484 7.248 41.1898 7.696 41.1898 8.24C41.1898 8.74133 41.2538 9.17333 41.3818 9.536C41.5098 9.888 41.6751 10.176 41.8778 10.4C42.0911 10.624 42.3311 10.7893 42.5978 10.896C42.8644 11.0027 43.1364 11.056 43.4138 11.056C43.6911 11.056 43.9631 11.0133 44.2298 10.928C44.4964 10.832 44.7311 10.6773 44.9338 10.464C45.1364 10.24 45.2964 9.952 45.4138 9.6C45.5418 9.23733 45.6058 8.784 45.6058 8.24ZM47.5151 12V4.48H48.9231V12H47.5151ZM48.2191 2.544C47.9738 2.544 47.7605 2.464 47.5791 2.304C47.4085 2.13333 47.3231 1.92533 47.3231 1.68C47.3231 1.43467 47.4085 1.22667 47.5791 1.056C47.7605 0.885333 47.9738 0.799999 48.2191 0.799999C48.4538 0.799999 48.6618 0.885333 48.8431 1.056C49.0245 1.22667 49.1151 1.43467 49.1151 1.68C49.1151 1.92533 49.0245 2.13333 48.8431 2.304C48.6618 2.464 48.4538 2.544 48.2191 2.544ZM48.6246 13.744L53.4886 -9.53674e-07H54.6886L49.8246 13.744H48.6246ZM54.1966 10.608L58.9806 7.936L54.1966 5.264V4.112L60.0206 7.472V8.4L54.1966 11.76V10.608Z" fill="#FFCB00"/>
</svg>
